<svg width="24" height="24" viewBox="0 0 24 24" fill="none" xmlns="http://www.w3.org/2000/svg">
<path fill-rule="evenodd" clip-rule="evenodd" d="M12.57 21.82L20.47 17.38C20.79 17.21 21 16.88 21 16.5V7.5C21 7.12 20.79 6.79 20.47 6.62L12.57 2.18C12.41 2.06 12.21 2 12 2C11.79 2 11.59 2.06 11.43 2.18L3.53 6.62C3.21 6.79 3 7.12 3 7.5V16.5C3 16.88 3.21 17.21 3.53 17.38L11.43 21.82C11.59 21.94 11.79 22 12 22C12.21 22 12.41 21.94 12.57 21.82ZM17.96 7.5L12 10.85L6.04 7.5L12 4.15L17.96 7.5ZM11 19.29V12.58L9 11.4599V14.28L7 13.15L7.00225 10.3346L5 9.21V15.91L11 19.29ZM19 9.21V15.91L13 19.29V12.58L19 9.21Z" fill="#808080"/>
</svg>
