<svg width="288" height="40" viewBox="0 0 288 40" fill="none" xmlns="http://www.w3.org/2000/svg">
<rect x="1" y="1" width="286" height="38" rx="7" stroke="#257AE8" stroke-width="2"/>
<path d="M96.8594 14.9785H103.784V23.3184H104.666V27.1875H102.984V25H96.6748V27.1875H94.9932V23.3184H95.8408C96.2555 22.4616 96.529 21.4681 96.6611 20.3379C96.7933 19.2031 96.8594 17.7699 96.8594 16.0381V14.9785ZM98.7871 16.6602C98.7871 19.7044 98.5114 21.9238 97.96 23.3184H101.768V16.6602H98.7871ZM110.401 22.6895L112.315 23.0107C112.069 23.7126 111.68 24.248 111.146 24.6172C110.618 24.9818 109.955 25.1641 109.157 25.1641C107.895 25.1641 106.961 24.7516 106.354 23.9268C105.876 23.266 105.637 22.432 105.637 21.4248C105.637 20.2217 105.951 19.2806 106.58 18.6016C107.209 17.918 108.004 17.5762 108.966 17.5762C110.046 17.5762 110.898 17.9339 111.522 18.6494C112.147 19.3604 112.445 20.4518 112.418 21.9238H107.605C107.619 22.4935 107.774 22.9378 108.07 23.2568C108.367 23.5713 108.736 23.7285 109.178 23.7285C109.479 23.7285 109.731 23.6465 109.937 23.4824C110.142 23.3184 110.297 23.054 110.401 22.6895ZM110.511 20.748C110.497 20.1921 110.354 19.7705 110.08 19.4834C109.807 19.1917 109.474 19.0459 109.082 19.0459C108.663 19.0459 108.316 19.1986 108.043 19.5039C107.77 19.8092 107.635 20.224 107.64 20.748H110.511ZM112.938 17.7402H119.507V19.292H117.183V25H115.262V19.292H112.938V17.7402ZM122.098 19.9551L120.354 19.6406C120.55 18.9388 120.888 18.4193 121.366 18.082C121.845 17.7448 122.556 17.5762 123.499 17.5762C124.356 17.5762 124.994 17.6787 125.413 17.8838C125.832 18.0843 126.126 18.3418 126.295 18.6562C126.468 18.9661 126.555 19.5381 126.555 20.3721L126.534 22.6143C126.534 23.2523 126.564 23.724 126.623 24.0293C126.687 24.3301 126.803 24.6536 126.972 25H125.071C125.021 24.8724 124.96 24.6833 124.887 24.4326C124.855 24.3187 124.832 24.2435 124.818 24.207C124.49 24.526 124.139 24.7653 123.766 24.9248C123.392 25.0843 122.993 25.1641 122.569 25.1641C121.822 25.1641 121.232 24.9613 120.799 24.5557C120.37 24.1501 120.156 23.6374 120.156 23.0176C120.156 22.6074 120.254 22.2428 120.45 21.9238C120.646 21.6003 120.92 21.3542 121.271 21.1855C121.626 21.0124 122.136 20.862 122.802 20.7344C123.7 20.5658 124.322 20.4085 124.668 20.2627V20.0713C124.668 19.7021 124.577 19.4401 124.395 19.2852C124.212 19.1257 123.868 19.0459 123.362 19.0459C123.021 19.0459 122.754 19.1143 122.562 19.251C122.371 19.3831 122.216 19.6178 122.098 19.9551ZM124.668 21.5137C124.422 21.5957 124.032 21.6937 123.499 21.8076C122.966 21.9215 122.617 22.0332 122.453 22.1426C122.202 22.3203 122.077 22.5459 122.077 22.8193C122.077 23.0882 122.177 23.3206 122.378 23.5166C122.578 23.7126 122.834 23.8105 123.144 23.8105C123.49 23.8105 123.82 23.6966 124.135 23.4688C124.367 23.2956 124.52 23.0837 124.593 22.833C124.643 22.6689 124.668 22.3568 124.668 21.8965V21.5137ZM128.975 17.7402H135.407V25H133.493V19.2988H130.875V22.5596C130.875 23.389 130.779 23.9723 130.588 24.3096C130.396 24.6423 130.185 24.861 129.952 24.9658C129.72 25.0706 129.346 25.123 128.831 25.123C128.526 25.123 128.122 25.082 127.621 25V23.585C127.662 23.585 127.769 23.5895 127.942 23.5986C128.143 23.6123 128.298 23.6191 128.407 23.6191C128.667 23.6191 128.826 23.5348 128.886 23.3662C128.945 23.193 128.975 22.7168 128.975 21.9375V17.7402ZM137.308 17.7402H139.153V22.2998L142.106 17.7402H143.993V25H142.147V20.3584L139.153 25H137.308V17.7402ZM151.82 22.0195V20.7686C152.153 20.7686 152.395 20.748 152.545 20.707C152.695 20.6615 152.837 20.5566 152.969 20.3926C153.105 20.224 153.174 20.0326 153.174 19.8184C153.174 19.5905 153.09 19.3809 152.921 19.1895C152.757 18.9935 152.508 18.8955 152.176 18.8955C151.921 18.8955 151.693 18.9502 151.492 19.0596C151.292 19.1689 151.109 19.4287 150.945 19.8389L149.318 19.4902C149.482 18.8522 149.833 18.3737 150.371 18.0547C150.909 17.7357 151.522 17.5762 152.21 17.5762C153.085 17.5762 153.762 17.7767 154.24 18.1777C154.723 18.5788 154.965 19.0824 154.965 19.6885C154.965 20.0667 154.86 20.3812 154.65 20.6318C154.445 20.8779 154.119 21.1081 153.673 21.3223C154.211 21.4681 154.612 21.6891 154.876 21.9854C155.145 22.2816 155.279 22.6507 155.279 23.0928C155.279 23.6579 155.015 24.1455 154.486 24.5557C153.958 24.9613 153.197 25.1641 152.203 25.1641C150.471 25.1641 149.412 24.4873 149.024 23.1338L150.781 22.8125C151.064 23.5234 151.531 23.8789 152.183 23.8789C152.543 23.8789 152.83 23.7855 153.044 23.5986C153.263 23.4072 153.372 23.1839 153.372 22.9287C153.372 22.6462 153.258 22.4251 153.03 22.2656C152.807 22.1016 152.513 22.0195 152.148 22.0195H151.82ZM158.068 19.9551L156.325 19.6406C156.521 18.9388 156.858 18.4193 157.337 18.082C157.815 17.7448 158.526 17.5762 159.47 17.5762C160.326 17.5762 160.965 17.6787 161.384 17.8838C161.803 18.0843 162.097 18.3418 162.266 18.6562C162.439 18.9661 162.525 19.5381 162.525 20.3721L162.505 22.6143C162.505 23.2523 162.535 23.724 162.594 24.0293C162.658 24.3301 162.774 24.6536 162.942 25H161.042C160.992 24.8724 160.93 24.6833 160.857 24.4326C160.826 24.3187 160.803 24.2435 160.789 24.207C160.461 24.526 160.11 24.7653 159.736 24.9248C159.363 25.0843 158.964 25.1641 158.54 25.1641C157.793 25.1641 157.202 24.9613 156.77 24.5557C156.341 24.1501 156.127 23.6374 156.127 23.0176C156.127 22.6074 156.225 22.2428 156.421 21.9238C156.617 21.6003 156.89 21.3542 157.241 21.1855C157.597 21.0124 158.107 20.862 158.772 20.7344C159.67 20.5658 160.292 20.4085 160.639 20.2627V20.0713C160.639 19.7021 160.548 19.4401 160.365 19.2852C160.183 19.1257 159.839 19.0459 159.333 19.0459C158.991 19.0459 158.725 19.1143 158.533 19.251C158.342 19.3831 158.187 19.6178 158.068 19.9551ZM160.639 21.5137C160.393 21.5957 160.003 21.6937 159.47 21.8076C158.937 21.9215 158.588 22.0332 158.424 22.1426C158.173 22.3203 158.048 22.5459 158.048 22.8193C158.048 23.0882 158.148 23.3206 158.349 23.5166C158.549 23.7126 158.804 23.8105 159.114 23.8105C159.461 23.8105 159.791 23.6966 160.105 23.4688C160.338 23.2956 160.491 23.0837 160.563 22.833C160.614 22.6689 160.639 22.3568 160.639 21.8965V21.5137ZM164.351 17.7402H166.265V20.707C166.584 20.6706 166.809 20.5726 166.941 20.4131C167.074 20.2536 167.233 19.9049 167.42 19.3672C167.666 18.6517 167.935 18.1937 168.227 17.9932C168.518 17.7926 168.901 17.6924 169.375 17.6924C169.521 17.6924 169.774 17.7038 170.134 17.7266L170.141 18.998C169.635 18.998 169.311 19.0459 169.17 19.1416C169.029 19.2419 168.876 19.5404 168.712 20.0371C168.489 20.707 168.167 21.1195 167.748 21.2744C168.354 21.443 168.867 21.9694 169.286 22.8535C169.309 22.8991 169.334 22.9469 169.361 22.9971L170.435 25H168.37L167.413 22.9014C167.217 22.4775 167.046 22.2064 166.9 22.0879C166.759 21.9648 166.547 21.9033 166.265 21.9033V25H164.351V17.7402ZM172.875 19.9551L171.132 19.6406C171.328 18.9388 171.665 18.4193 172.144 18.082C172.622 17.7448 173.333 17.5762 174.276 17.5762C175.133 17.5762 175.771 17.6787 176.19 17.8838C176.61 18.0843 176.904 18.3418 177.072 18.6562C177.245 18.9661 177.332 19.5381 177.332 20.3721L177.312 22.6143C177.312 23.2523 177.341 23.724 177.4 24.0293C177.464 24.3301 177.58 24.6536 177.749 25H175.849C175.799 24.8724 175.737 24.6833 175.664 24.4326C175.632 24.3187 175.609 24.2435 175.596 24.207C175.268 24.526 174.917 24.7653 174.543 24.9248C174.169 25.0843 173.771 25.1641 173.347 25.1641C172.599 25.1641 172.009 24.9613 171.576 24.5557C171.148 24.1501 170.934 23.6374 170.934 23.0176C170.934 22.6074 171.032 22.2428 171.228 21.9238C171.424 21.6003 171.697 21.3542 172.048 21.1855C172.403 21.0124 172.914 20.862 173.579 20.7344C174.477 20.5658 175.099 20.4085 175.445 20.2627V20.0713C175.445 19.7021 175.354 19.4401 175.172 19.2852C174.99 19.1257 174.646 19.0459 174.14 19.0459C173.798 19.0459 173.531 19.1143 173.34 19.251C173.148 19.3831 172.993 19.6178 172.875 19.9551ZM175.445 21.5137C175.199 21.5957 174.81 21.6937 174.276 21.8076C173.743 21.9215 173.395 22.0332 173.23 22.1426C172.98 22.3203 172.854 22.5459 172.854 22.8193C172.854 23.0882 172.955 23.3206 173.155 23.5166C173.356 23.7126 173.611 23.8105 173.921 23.8105C174.267 23.8105 174.598 23.6966 174.912 23.4688C175.145 23.2956 175.297 23.0837 175.37 22.833C175.42 22.6689 175.445 22.3568 175.445 21.8965V21.5137ZM181.365 22.0195V20.7686C181.698 20.7686 181.939 20.748 182.09 20.707C182.24 20.6615 182.382 20.5566 182.514 20.3926C182.65 20.224 182.719 20.0326 182.719 19.8184C182.719 19.5905 182.634 19.3809 182.466 19.1895C182.302 18.9935 182.053 18.8955 181.721 18.8955C181.465 18.8955 181.238 18.9502 181.037 19.0596C180.837 19.1689 180.654 19.4287 180.49 19.8389L178.863 19.4902C179.027 18.8522 179.378 18.3737 179.916 18.0547C180.454 17.7357 181.067 17.5762 181.755 17.5762C182.63 17.5762 183.307 17.7767 183.785 18.1777C184.268 18.5788 184.51 19.0824 184.51 19.6885C184.51 20.0667 184.405 20.3812 184.195 20.6318C183.99 20.8779 183.664 21.1081 183.218 21.3223C183.756 21.4681 184.157 21.6891 184.421 21.9854C184.69 22.2816 184.824 22.6507 184.824 23.0928C184.824 23.6579 184.56 24.1455 184.031 24.5557C183.503 24.9613 182.742 25.1641 181.748 25.1641C180.016 25.1641 178.957 24.4873 178.569 23.1338L180.326 22.8125C180.609 23.5234 181.076 23.8789 181.728 23.8789C182.088 23.8789 182.375 23.7855 182.589 23.5986C182.808 23.4072 182.917 23.1839 182.917 22.9287C182.917 22.6462 182.803 22.4251 182.575 22.2656C182.352 22.1016 182.058 22.0195 181.693 22.0195H181.365ZM187.613 19.9551L185.87 19.6406C186.066 18.9388 186.403 18.4193 186.882 18.082C187.36 17.7448 188.071 17.5762 189.015 17.5762C189.871 17.5762 190.509 17.6787 190.929 17.8838C191.348 18.0843 191.642 18.3418 191.811 18.6562C191.984 18.9661 192.07 19.5381 192.07 20.3721L192.05 22.6143C192.05 23.2523 192.079 23.724 192.139 24.0293C192.202 24.3301 192.319 24.6536 192.487 25H190.587C190.537 24.8724 190.475 24.6833 190.402 24.4326C190.37 24.3187 190.348 24.2435 190.334 24.207C190.006 24.526 189.655 24.7653 189.281 24.9248C188.908 25.0843 188.509 25.1641 188.085 25.1641C187.338 25.1641 186.747 24.9613 186.314 24.5557C185.886 24.1501 185.672 23.6374 185.672 23.0176C185.672 22.6074 185.77 22.2428 185.966 21.9238C186.162 21.6003 186.435 21.3542 186.786 21.1855C187.142 21.0124 187.652 20.862 188.317 20.7344C189.215 20.5658 189.837 20.4085 190.184 20.2627V20.0713C190.184 19.7021 190.092 19.4401 189.91 19.2852C189.728 19.1257 189.384 19.0459 188.878 19.0459C188.536 19.0459 188.27 19.1143 188.078 19.251C187.887 19.3831 187.732 19.6178 187.613 19.9551ZM190.184 21.5137C189.938 21.5957 189.548 21.6937 189.015 21.8076C188.481 21.9215 188.133 22.0332 187.969 22.1426C187.718 22.3203 187.593 22.5459 187.593 22.8193C187.593 23.0882 187.693 23.3206 187.894 23.5166C188.094 23.7126 188.349 23.8105 188.659 23.8105C189.006 23.8105 189.336 23.6966 189.65 23.4688C189.883 23.2956 190.035 23.0837 190.108 22.833C190.159 22.6689 190.184 22.3568 190.184 21.8965V21.5137Z" fill="#257AE8"/>
</svg>
