<svg width="32" height="32" viewBox="0 0 32 32" fill="none" xmlns="http://www.w3.org/2000/svg">
<path d="M7.15586 15.1785C7.30679 15.017 7.4893 14.8883 7.69205 14.8002C7.89481 14.7122 8.11349 14.6668 8.33453 14.6668C8.55557 14.6668 8.77425 14.7122 8.97701 14.8002C9.17977 14.8883 9.36227 15.017 9.51321 15.1785C13.0906 18.9198 18.9119 18.9198 22.4866 15.1785C22.6376 15.0166 22.8203 14.8875 23.0233 14.7992C23.2263 14.7109 23.4453 14.6654 23.6666 14.6654C23.888 14.6654 24.107 14.7109 24.31 14.7992C24.513 14.8875 24.6957 15.0166 24.8467 15.1785C25.496 15.8611 25.496 16.9651 24.844 17.6478C22.8832 19.7188 20.2596 21.0386 17.4279 21.3784L22.1826 26.3543C22.4967 26.6882 22.6716 27.1293 22.6716 27.5876C22.6716 28.046 22.4967 28.4871 22.1826 28.8209C22.0311 28.982 21.8483 29.1105 21.6454 29.1985C21.4425 29.2866 21.2238 29.3323 21.0026 29.3329C20.576 29.3329 20.1493 29.1609 19.824 28.8209L15.9999 24.821L12.1759 28.8209C12.0249 28.9826 11.8424 29.1116 11.6395 29.1997C11.4366 29.2879 11.2178 29.3334 10.9966 29.3334C10.7753 29.3334 10.5565 29.2879 10.3536 29.1997C10.1507 29.1116 9.96816 28.9826 9.81721 28.8209C9.50314 28.4871 9.32827 28.046 9.32827 27.5876C9.32827 27.1293 9.50314 26.6882 9.81721 26.3543L14.5719 21.3784C11.7402 21.0386 9.11666 19.7188 7.15586 17.6478C6.84161 17.3135 6.66666 16.8719 6.66666 16.4131C6.66666 15.9543 6.84161 15.5128 7.15586 15.1785ZM15.9999 2.66669C19.6773 2.66669 22.6666 5.65597 22.6666 9.33325C22.6666 13.0105 19.6773 15.9998 15.9999 15.9998C12.3226 15.9998 9.33321 13.0105 9.33321 9.33325C9.33321 5.65597 12.3226 2.66669 15.9999 2.66669ZM15.9999 5.99997C15.1162 6.00103 14.2689 6.35255 13.6441 6.97743C13.0192 7.60231 12.6676 8.44953 12.6666 9.33325C12.6666 11.1719 14.1612 12.6665 15.9999 12.6665C17.8386 12.6665 19.3333 11.1719 19.3333 9.33325C19.3333 7.49461 17.8386 5.99997 15.9999 5.99997Z" fill="#808080"/>
</svg>
