<svg width="116" height="16" viewBox="0 0 116 16" fill="none" xmlns="http://www.w3.org/2000/svg">
<path d="M33.1223 1.60913C29.7502 1.60913 27.1147 4.38248 27.1147 7.85686C27.1147 11.3189 29.7502 14.0431 33.1223 14.0431C36.4944 14.0431 39.1299 11.3189 39.1299 7.85686C39.1299 4.38248 36.4944 1.60913 33.1223 1.60913ZM33.1223 12.0446C30.9301 12.0446 29.2111 10.2674 29.2111 7.85686C29.2111 5.44632 30.9301 3.61997 33.1223 3.61997C35.3145 3.61997 37.0335 5.44632 37.0335 7.85686C37.0335 10.2674 35.3145 12.0446 33.1223 12.0446Z" fill="black" fill-opacity="0.9"/>
<path d="M58.6677 1.60913C55.2956 1.60913 52.6602 4.38248 52.6602 7.85686C52.6602 11.3189 55.2956 14.0431 58.6677 14.0431C62.0398 14.0431 64.6753 11.3189 64.6753 7.85686C64.6753 4.38248 62.0398 1.60913 58.6677 1.60913ZM58.6677 12.0446C56.4755 12.0446 54.7565 10.2674 54.7565 7.85686C54.7565 5.44632 56.4755 3.61997 58.6677 3.61997C60.8599 3.61997 62.5789 5.44632 62.5789 7.85686C62.5789 10.2674 60.8599 12.0446 58.6677 12.0446Z" fill="black" fill-opacity="0.9"/>
<path d="M69.5927 1.84277H67.5083V13.8094H75.5104V11.8723H69.5927V1.84277Z" fill="black" fill-opacity="0.9"/>
<path d="M82.4763 1.60913C79.1042 1.60913 76.4688 4.38248 76.4688 7.85686C76.4688 11.3189 79.1042 14.0431 82.4763 14.0431C85.8484 14.0431 88.4839 11.3189 88.4839 7.85686C88.4839 4.38248 85.8484 1.60913 82.4763 1.60913ZM82.4763 12.0446C80.2841 12.0446 78.5651 10.2674 78.5651 7.85686C78.5651 5.44632 80.2841 3.61997 82.4763 3.61997C84.6685 3.61997 86.3875 5.44632 86.3875 7.85686C86.3875 10.2674 84.6685 12.0446 82.4763 12.0446Z" fill="black" fill-opacity="0.9"/>
<path d="M99.3248 1.84277L95.5694 10.2981L91.8259 1.84277H89.5259L94.8806 13.8094H96.2761L101.625 1.84277H99.3248Z" fill="black" fill-opacity="0.9"/>
<path d="M51.5163 1.84277H48.8629L44.0473 6.96517V1.84277H41.9629V13.8094H44.0473V8.49021L49.0486 13.8094H51.8996L45.94 7.6293L51.5163 1.84277Z" fill="black" fill-opacity="0.9"/>
<path d="M15.375 10.4334C15.5068 12.0077 16.7406 14.0431 20.3164 14.0431C23.0357 14.0431 24.8445 12.5734 24.8445 10.292C24.8445 7.94295 23.0596 7.11279 21.4424 6.89141C20.7596 6.79917 19.9451 6.68849 19.3281 6.60855C18.226 6.46096 17.7169 5.99976 17.7169 5.1942C17.7169 4.14266 18.7531 3.47238 20.0169 3.47238C21.3047 3.47238 22.1612 3.93973 22.5445 5.02816H24.6109C24.3654 3.60767 23.2693 1.60913 20.0169 1.60913C17.2737 1.60913 15.6026 3.38629 15.6026 5.33563C15.6026 7.83226 17.5732 8.42875 19.1964 8.65013C19.8193 8.73622 20.4542 8.82231 21.0052 8.8961C22.1073 9.04368 22.7302 9.55408 22.7302 10.4273C22.7302 11.3005 22.0773 12.1491 20.2685 12.1491C18.5195 12.1491 17.6151 11.3066 17.4654 10.4273H15.375V10.4334Z" fill="black" fill-opacity="0.9"/>
</svg>
