<svg width="62" height="20" viewBox="0 0 62 20" fill="none" xmlns="http://www.w3.org/2000/svg">
<rect width="62" height="20" rx="8" fill="#308F2C"/>
<path d="M13.3076 10.8682L14.709 11.3125C14.4941 12.0938 14.1361 12.6748 13.6348 13.0557C13.1367 13.4333 12.5036 13.6221 11.7354 13.6221C10.7848 13.6221 10.0036 13.2982 9.3916 12.6504C8.77962 11.9993 8.47363 11.1107 8.47363 9.98438C8.47363 8.79297 8.78125 7.86849 9.39648 7.21094C10.0117 6.55013 10.8206 6.21973 11.8232 6.21973C12.6989 6.21973 13.4102 6.47852 13.957 6.99609C14.2826 7.30208 14.5267 7.74154 14.6895 8.31445L13.2588 8.65625C13.1742 8.28516 12.9967 7.99219 12.7266 7.77734C12.4596 7.5625 12.1341 7.45508 11.75 7.45508C11.2194 7.45508 10.7881 7.64551 10.4561 8.02637C10.1273 8.40723 9.96289 9.02409 9.96289 9.87695C9.96289 10.7819 10.1257 11.4264 10.4512 11.8105C10.7767 12.1947 11.1999 12.3867 11.7207 12.3867C12.1048 12.3867 12.4352 12.2646 12.7119 12.0205C12.9886 11.7764 13.1872 11.3923 13.3076 10.8682ZM15.9072 9.96484C15.9072 9.23568 16.0163 8.6237 16.2344 8.12891C16.3971 7.76432 16.6185 7.43717 16.8984 7.14746C17.1816 6.85775 17.4909 6.6429 17.8262 6.50293C18.2721 6.31413 18.7865 6.21973 19.3691 6.21973C20.4238 6.21973 21.2669 6.54688 21.8984 7.20117C22.5332 7.85547 22.8506 8.7653 22.8506 9.93066C22.8506 11.0863 22.5365 11.9912 21.9082 12.6455C21.2799 13.2965 20.4401 13.6221 19.3887 13.6221C18.3242 13.6221 17.4779 13.2982 16.8496 12.6504C16.2214 11.9993 15.9072 11.1042 15.9072 9.96484ZM17.3965 9.91602C17.3965 10.7266 17.5837 11.3418 17.958 11.7617C18.3324 12.1784 18.8076 12.3867 19.3838 12.3867C19.96 12.3867 20.432 12.18 20.7998 11.7666C21.1709 11.3499 21.3564 10.7266 21.3564 9.89648C21.3564 9.07617 21.1758 8.46419 20.8145 8.06055C20.4564 7.6569 19.9795 7.45508 19.3838 7.45508C18.7881 7.45508 18.3079 7.66016 17.9434 8.07031C17.5788 8.47721 17.3965 9.09245 17.3965 9.91602ZM25.5039 8.29492L24.0977 7.96777C24.4004 6.80241 25.2614 6.21973 26.6807 6.21973C27.5205 6.21973 28.1536 6.40527 28.5801 6.77637C29.0098 7.14421 29.2246 7.57715 29.2246 8.0752C29.2246 8.41699 29.127 8.72624 28.9316 9.00293C28.7363 9.27637 28.4434 9.51725 28.0527 9.72559C28.528 9.88835 28.8844 10.1195 29.1221 10.4189C29.3597 10.7152 29.4785 11.0814 29.4785 11.5176C29.4785 12.1458 29.2474 12.6536 28.7852 13.041C28.3262 13.4284 27.6377 13.6221 26.7197 13.6221C25.971 13.6221 25.3802 13.4984 24.9473 13.251C24.5143 13.0003 24.1888 12.5332 23.9707 11.8496L25.2939 11.415C25.4307 11.8447 25.6113 12.123 25.8359 12.25C26.0638 12.377 26.3438 12.4404 26.6758 12.4404C27.1315 12.4404 27.4635 12.3428 27.6719 12.1475C27.8802 11.9489 27.9844 11.7227 27.9844 11.4688C27.9844 11.1758 27.8656 10.9398 27.6279 10.7607C27.3936 10.5817 27.0387 10.4922 26.5635 10.4922H26.2363V9.41309H26.4023C26.8451 9.41309 27.1836 9.3138 27.418 9.11523C27.6523 8.91667 27.7695 8.65299 27.7695 8.32422C27.7695 8.0638 27.6735 7.84408 27.4814 7.66504C27.2926 7.486 27.0208 7.39648 26.666 7.39648C26.0605 7.39648 25.6732 7.69596 25.5039 8.29492ZM31.8291 6.3418H36.7754V12.2988H37.4053V15.0625H36.2041V13.5H31.6973V15.0625H30.4961V12.2988H31.1016C31.3978 11.6868 31.5931 10.9772 31.6875 10.1699C31.7819 9.35938 31.8291 8.33561 31.8291 7.09863V6.3418ZM33.2061 7.54297C33.2061 9.71745 33.0091 11.3027 32.6152 12.2988H35.335V7.54297H33.2061ZM45.3369 13.5H43.7646L43.1396 11.874H40.2783L39.6875 13.5H38.1543L40.9424 6.3418H42.4707L45.3369 13.5ZM42.6758 10.668L41.6895 8.01172L40.7227 10.668H42.6758ZM46.6133 13.5V6.3418H48.0586V9.15918H50.8906V6.3418H52.3359V13.5H50.8906V10.3701H48.0586V13.5H46.6133Z" fill="white"/>
</svg>
