<svg width="121" height="24" viewBox="0 0 121 24" fill="none" xmlns="http://www.w3.org/2000/svg">
<rect y="2" width="121" height="20" rx="8" fill="#BF9713"/>
<path d="M8.43457 11.9648C8.43457 11.2357 8.54362 10.6237 8.76172 10.1289C8.92448 9.76432 9.14583 9.43717 9.42578 9.14746C9.70898 8.85775 10.0182 8.6429 10.3535 8.50293C10.7995 8.31413 11.3138 8.21973 11.8965 8.21973C12.9512 8.21973 13.7943 8.54688 14.4258 9.20117C15.0605 9.85547 15.3779 10.7653 15.3779 11.9307C15.3779 13.0863 15.0638 13.9912 14.4355 14.6455C13.8073 15.2965 12.9674 15.6221 11.916 15.6221C10.8516 15.6221 10.0052 15.2982 9.37695 14.6504C8.7487 13.9993 8.43457 13.1042 8.43457 11.9648ZM9.92383 11.916C9.92383 12.7266 10.111 13.3418 10.4854 13.7617C10.8597 14.1784 11.335 14.3867 11.9111 14.3867C12.4873 14.3867 12.9593 14.18 13.3271 13.7666C13.6982 13.3499 13.8838 12.7266 13.8838 11.8965C13.8838 11.0762 13.7031 10.4642 13.3418 10.0605C12.9837 9.6569 12.5068 9.45508 11.9111 9.45508C11.3154 9.45508 10.8353 9.66016 10.4707 10.0703C10.1061 10.4772 9.92383 11.0924 9.92383 11.916ZM21.3711 8.3418V11.3887C21.612 11.3691 21.7943 11.2796 21.918 11.1201C22.0417 10.9606 22.2126 10.596 22.4307 10.0264C22.7171 9.28092 23.0101 8.80566 23.3096 8.60059C23.6058 8.39876 24.099 8.29785 24.7891 8.29785C24.8216 8.29785 24.8916 8.29622 24.999 8.29297V9.3623L24.7891 9.35742C24.4961 9.35742 24.2812 9.39486 24.1445 9.46973C24.0078 9.54134 23.8971 9.65202 23.8125 9.80176C23.7279 9.9515 23.6025 10.2591 23.4365 10.7246C23.3486 10.972 23.2526 11.1787 23.1484 11.3447C23.0475 11.5107 22.8669 11.667 22.6064 11.8135C22.9287 11.9079 23.194 12.0934 23.4023 12.3701C23.6139 12.6436 23.8451 13.0326 24.0957 13.5371L25.0723 15.5H23.373L22.5137 13.6494C22.5039 13.6234 22.4762 13.5729 22.4307 13.498C22.4046 13.4492 22.346 13.3369 22.2549 13.1611C22.0726 12.8193 21.9229 12.6012 21.8057 12.5068C21.6885 12.4124 21.5436 12.3652 21.3711 12.3652V15.5H19.96V12.3652C19.7939 12.3652 19.6507 12.4108 19.5303 12.502C19.4098 12.5931 19.2601 12.8128 19.0811 13.1611C18.9801 13.3564 18.9199 13.4688 18.9004 13.498C18.8711 13.5469 18.8434 13.5973 18.8174 13.6494L17.958 15.5H16.2588L17.2354 13.5371C17.4762 13.0521 17.7025 12.668 17.9141 12.3848C18.1289 12.0983 18.4007 11.9079 18.7295 11.8135C18.4691 11.667 18.2868 11.5124 18.1826 11.3496C18.0817 11.1836 17.9857 10.9753 17.8945 10.7246C17.7318 10.2689 17.6081 9.96452 17.5234 9.81152C17.4421 9.65853 17.3314 9.5446 17.1914 9.46973C17.0547 9.39486 16.8301 9.35742 16.5176 9.35742C16.4785 9.35742 16.4167 9.35905 16.332 9.3623V8.29297C16.4395 8.29622 16.5094 8.29785 16.542 8.29785C17.2419 8.29785 17.7399 8.40039 18.0361 8.60547C18.3291 8.8138 18.6172 9.28743 18.9004 10.0264C19.1217 10.5993 19.2926 10.9655 19.4131 11.125C19.5368 11.2812 19.7191 11.3691 19.96 11.3887V8.3418H21.3711ZM26.4365 8.3418H27.7891V13.1074L30.6895 8.3418H32.1299V15.5H30.7773V10.8271L27.8818 15.5H26.4365V8.3418ZM34.6807 8.3418H39.627V14.2988H40.2568V17.0625H39.0557V15.5H34.5488V17.0625H33.3477V14.2988H33.9531C34.2493 13.6868 34.4447 12.9772 34.5391 12.1699C34.6335 11.3594 34.6807 10.3356 34.6807 9.09863V8.3418ZM36.0576 9.54297C36.0576 11.7174 35.8607 13.3027 35.4668 14.2988H38.1865V9.54297H36.0576ZM48.1885 15.5H46.6162L45.9912 13.874H43.1299L42.5391 15.5H41.0059L43.7939 8.3418H45.3223L48.1885 15.5ZM45.5273 12.668L44.541 10.0117L43.5742 12.668H45.5273ZM49.46 15.5V8.3418H54.7676V9.55273H50.9053V11.1396H54.499V12.3457H50.9053V14.2939H54.9043V15.5H49.46ZM58.2412 15.5V9.55273H56.1172V8.3418H61.8057V9.55273H59.6865V15.5H58.2412ZM66.2334 11.9648C66.2334 11.2357 66.3424 10.6237 66.5605 10.1289C66.7233 9.76432 66.9447 9.43717 67.2246 9.14746C67.5078 8.85775 67.8171 8.6429 68.1523 8.50293C68.5983 8.31413 69.1126 8.21973 69.6953 8.21973C70.75 8.21973 71.5931 8.54688 72.2246 9.20117C72.8594 9.85547 73.1768 10.7653 73.1768 11.9307C73.1768 13.0863 72.8626 13.9912 72.2344 14.6455C71.6061 15.2965 70.7663 15.6221 69.7148 15.6221C68.6504 15.6221 67.804 15.2982 67.1758 14.6504C66.5475 13.9993 66.2334 13.1042 66.2334 11.9648ZM67.7227 11.916C67.7227 12.7266 67.9098 13.3418 68.2842 13.7617C68.6585 14.1784 69.1338 14.3867 69.71 14.3867C70.2861 14.3867 70.7581 14.18 71.126 13.7666C71.4971 13.3499 71.6826 12.7266 71.6826 11.8965C71.6826 11.0762 71.502 10.4642 71.1406 10.0605C70.7826 9.6569 70.3057 9.45508 69.71 9.45508C69.1143 9.45508 68.6341 9.66016 68.2695 10.0703C67.9049 10.4772 67.7227 11.0924 67.7227 11.916ZM74.8291 8.3418H80.5225V15.5H79.0771V9.54297H76.2744V15.5H74.8291V8.3418ZM83.0098 8.3418H88.0244V15.5H86.5791V9.55273H84.4258V12.6094C84.4258 13.485 84.3965 14.097 84.3379 14.4453C84.2793 14.7904 84.1361 15.0605 83.9082 15.2559C83.6836 15.4479 83.3304 15.5439 82.8486 15.5439C82.6794 15.5439 82.3717 15.5277 81.9258 15.4951V14.377L82.248 14.3818C82.5508 14.3818 82.7542 14.3411 82.8584 14.2598C82.9626 14.1784 83.0146 13.9782 83.0146 13.6592L83.0098 12.4287V8.3418ZM96.4736 15.5H94.9014L94.2764 13.874H91.415L90.8242 15.5H89.291L92.0791 8.3418H93.6074L96.4736 15.5ZM93.8125 12.668L92.8262 10.0117L91.8594 12.668H93.8125ZM98.8584 15.5V9.55273H96.7344V8.3418H102.423V9.55273H100.304V15.5H98.8584ZM103.899 8.3418H105.345V11.2031H107.278C107.786 11.2031 108.222 11.2731 108.587 11.4131C108.955 11.5498 109.261 11.7972 109.505 12.1553C109.749 12.5101 109.871 12.9186 109.871 13.3809C109.871 13.8659 109.744 14.2842 109.49 14.6357C109.236 14.984 108.953 15.2152 108.641 15.3291C108.331 15.443 107.877 15.5 107.278 15.5H103.899V8.3418ZM105.345 14.2988H106.756C107.205 14.2988 107.518 14.2777 107.693 14.2354C107.872 14.1898 108.03 14.0889 108.167 13.9326C108.307 13.7764 108.377 13.5859 108.377 13.3613C108.377 13.0423 108.263 12.8031 108.035 12.6436C107.811 12.484 107.404 12.4043 106.814 12.4043H105.345V14.2988ZM110.706 8.3418H112.151V15.5H110.706V8.3418Z" fill="white"/>
</svg>
