<svg width="32" height="32" viewBox="0 0 32 32" fill="none" xmlns="http://www.w3.org/2000/svg">
<path d="M28.1059 4.73109C27.4419 4.16289 26.4506 4.05747 25.4566 4.45042C24.8405 4.69275 15.1866 8.75502 6.18719 12.5435L3.21477 13.7949C2.06331 14.2617 1.48006 15.0189 1.48006 16.0416C1.48006 16.7577 1.78401 17.7312 3.22983 18.3035L8.2505 20.312C8.68452 21.6141 9.69221 24.6371 9.9455 25.4408C10.0961 25.9173 10.4767 27.118 11.4379 27.3987C11.635 27.4658 11.8404 27.5 12.0499 27.5C12.6564 27.5 13.0932 27.218 13.3068 27.0537L16.4955 24.3565L20.3716 27.9395C20.5208 28.0915 21.3094 28.8596 22.3705 28.8596C23.6945 28.8596 24.6994 27.7574 24.9089 26.6909C25.0226 26.1062 28.759 7.34617 28.759 7.3489C29.0944 5.84421 28.4934 5.06379 28.1059 4.73109ZM22.2405 25.9378L16.5763 20.6995L12.4278 24.2113C11.9362 22.6957 10.6465 18.8415 10.6465 18.8415L10.4466 18.2405L4.94126 16.0389L7.25102 15.0682C13.137 12.59 23.6206 8.17724 25.9974 7.18871C25.4812 9.7764 22.6676 23.9019 22.2405 25.9378Z" fill="#808080"/>
<path d="M21.7381 11.0596C21.567 11.0596 21.3356 11.2225 21.2124 11.2991C19.4491 12.3985 10.608 17.4296 8.18343 18.8069C8.86657 19.0807 9.34846 19.2737 9.34846 19.2737C9.34846 19.2737 10.9242 23.99 11.2514 25.0236C11.5786 26.0586 11.8414 26.0832 11.8414 26.0832C11.914 26.1147 11.9852 26.127 12.0509 26.127C12.1043 26.127 12.1413 26.1078 12.1864 26.0955L13.7978 19.7871C13.7978 19.7871 21.1398 12.356 21.582 11.9234C21.938 11.5771 22.0119 11.4552 22.0119 11.3347C22.0119 11.1746 21.9284 11.0596 21.7381 11.0596Z" fill="#808080"/>
</svg>
