<svg width="18" height="18" viewBox="0 0 18 18" fill="none" xmlns="http://www.w3.org/2000/svg">
<path fill-rule="evenodd" clip-rule="evenodd" d="M9 0C11.7625 0 14 2.2375 14 5C14 7.7625 11.7625 10 9 10C6.2375 10 4 7.7625 4 5C4 2.2375 6.2375 0 9 0ZM9 2C7.35 2 6 3.35 6 5C6 6.65 7.35 8 9 8C10.65 8 12 6.65 12 5C12 3.35 10.65 2 9 2ZM18 15V17C18 17.5523 17.5523 18 17 18H1C0.447716 18 0 17.5523 0 17V15C0 12.33 6.33 11 9 11C11.67 11 18 12.33 18 15ZM9 12.9C6.03 12.9 1.9 14.36 1.9 15V16.1H16.1V15C16.1 14.36 11.97 12.9 9 12.9Z" fill="#808080"/>
</svg>
